<?xml version="1.0" encoding="UTF-8"?>
<svg id="Layer_1" data-name="Layer 1" xmlns="http://www.w3.org/2000/svg" viewBox="0 0 877.75 877.75">
  <defs>
    <style>
      .cls-1 {
        fill: #dcdedf;
      }

      .cls-2 {
        fill: #b42832;
      }

      .cls-3 {
        fill: #872b35;
      }

      .cls-4 {
        fill: #edeeef;
      }
    </style>
  </defs>
  <path class="cls-2" d="M877.75,438.88c0,242.39-196.5,438.88-438.88,438.88S0,681.27,0,438.88c0-55.9,10.44-109.35,29.5-158.51C62.05,196.37,119.7,124.88,193.25,75.12c48.55-32.84,104.01-56.22,163.74-67.49,26.54-5,53.91-7.63,81.89-7.63s55.33,2.62,81.86,7.63c59.75,11.27,115.21,34.65,163.76,67.49,73.55,49.76,131.21,121.24,163.74,205.23,19.06,49.16,29.52,102.63,29.52,158.53Z"/>
  <g>
    <path class="cls-4" d="M356.99,7.63v273.09h-163.74V75.12c48.55-32.84,104.01-56.22,163.74-67.49Z"/>
    <path class="cls-2" d="M193.25,75.12v205.6H29.5v-.36C62.05,196.37,119.7,124.88,193.25,75.12Z"/>
    <path class="cls-2" d="M520.73,7.63v273.09h-163.74V7.63c26.54-5,53.91-7.63,81.89-7.63s55.33,2.62,81.86,7.63Z"/>
    <path class="cls-4" d="M684.49,75.12v205.6h-163.76V7.63c59.75,11.27,115.21,34.65,163.76,67.49Z"/>
    <path class="cls-2" d="M848.23,280.35v.37h-163.74V75.12c73.55,49.76,131.21,121.24,163.74,205.23Z"/>
    <path class="cls-1" d="M356.99,280.72v5c0,45.21-36.64,81.87-81.87,81.87s-81.87-36.66-81.87-81.87v-5h163.74Z"/>
    <path class="cls-3" d="M193.25,280.72v5c0,45.21-36.64,81.87-81.87,81.87s-81.87-36.66-81.87-81.87v-5h163.74Z"/>
    <path class="cls-3" d="M520.74,280.72v5c0,45.21-36.64,81.87-81.87,81.87s-81.87-36.66-81.87-81.87v-5h163.74Z"/>
    <path class="cls-1" d="M684.5,280.72v5c0,45.21-36.66,81.87-81.89,81.87s-81.87-36.66-81.87-81.87v-5h163.76Z"/>
    <path class="cls-3" d="M848.24,280.72v5c0,45.21-36.66,81.87-81.87,81.87s-81.87-36.66-81.87-81.87v-5h163.74Z"/>
  </g>
  <path class="cls-4" d="M439.5,792.3c-29.75,0-56.81-4.75-81.18-14.25-24.38-9.5-45.31-22.79-62.8-39.87-17.49-17.08-30.92-37.18-40.28-60.32-9.37-23.14-14.05-48.34-14.05-75.61s4.75-51.92,14.25-74.78c9.5-22.86,23.07-42.83,40.7-59.91,17.62-17.07,38.69-30.3,63.21-39.66,24.51-9.36,51.78-14.05,81.8-14.05s55.7,4.48,79.53,13.43c23.82,8.95,44.34,21.55,61.56,37.8,17.21,16.26,30.57,35.32,40.08,57.22,9.5,21.9,14.25,45.65,14.25,71.27s-3.51,45.86-10.54,63.21c-7.02,17.35-16.94,30.57-29.75,39.66-12.81,9.09-27.62,13.63-44.41,13.63-18.73,0-33.61-5.44-44.62-16.32-11.02-10.88-16.53-27.06-16.53-48.55v-18.59l1.24-22.72-3.72-59.91v-39.66h55.78v133.86c0,9.92,2,16.8,5.99,20.66,3.99,3.86,8.61,5.78,13.84,5.78,6.33,0,11.84-2.48,16.53-7.44,4.68-4.96,8.19-12.6,10.53-22.93,2.34-10.33,3.51-23.48,3.51-39.46,0-20.93-3.58-40.08-10.74-57.43-7.17-17.35-17.63-32.29-31.4-44.83-13.78-12.53-30.02-22.24-48.75-29.13-18.73-6.88-39.53-10.33-62.38-10.33s-43.79,3.72-62.8,11.15c-19,7.44-35.26,17.84-48.75,31.19-13.5,13.36-23.9,29.13-31.19,47.31-7.3,18.18-10.95,38.01-10.95,59.49s3.58,42.28,10.74,60.73c7.16,18.46,17.42,34.29,30.78,47.51,13.36,13.22,29.4,23.55,48.13,30.99,18.73,7.44,39.52,11.16,62.39,11.16,13.22,0,26.78-1.52,40.7-4.55,13.91-3.03,27.47-7.58,40.7-13.63l13.22,38.01c-12.67,6.33-27.47,11.22-44.41,14.67-16.94,3.44-33.67,5.16-50.2,5.16ZM424.62,710.09c-17.63,0-33.74-4.4-48.34-13.22-14.6-8.81-26.17-21.07-34.7-36.77-8.54-15.7-12.81-33.88-12.81-54.54s4.27-38.84,12.81-54.54c8.53-15.7,20.04-27.82,34.5-36.36,14.46-8.53,30.64-12.81,48.55-12.81s33.74,4.07,46.69,12.19c12.94,8.13,22.86,19.9,29.75,35.32,6.88,15.43,10.33,34.16,10.33,56.19s-3.3,40.84-9.92,56.4c-6.61,15.56-16.32,27.47-29.13,35.74-12.81,8.26-28.71,12.4-47.72,12.4ZM437.84,662.57c9.92,0,18.73-2.27,26.44-6.82,7.71-4.54,13.84-11.08,18.39-19.62,4.54-8.53,6.82-18.73,6.82-30.57s-2.27-22.31-6.82-30.57c-4.55-8.26-10.68-14.67-18.39-19.21-7.71-4.55-16.53-6.82-26.44-6.82s-19.21,2.34-27.06,7.02c-7.85,4.69-13.91,11.15-18.18,19.42-4.27,8.26-6.4,18.32-6.4,30.16s2.13,21.63,6.4,30.16c4.27,8.54,10.33,15.15,18.18,19.83,7.85,4.69,16.87,7.02,27.06,7.02Z"/>
</svg>