<svg xmlns="http://www.w3.org/2000/svg" width="256" height="256"><path fill="#1976D2" fill-opacity=".016" fill-rule="evenodd" d="M0 128.004v128.004l128.25-.254 128.25-.254.254-127.75L257.008 0H0zm.485.496c0 70.4.119 99.053.265 63.672s.146-92.98 0-128S.485 58.1.485 128.5"/><path fill="#1976D2" fill-opacity=".059" fill-rule="evenodd" d="M109.5.603c-1.1.261-3.031.696-4.291.965-1.31.281-2.006.952-1.625 1.568.454.735-.407.866-2.709.41C98.258 3.029 97.837 3.13 99 4c1.165.871.717.982-2 .5-2.747-.488-3.177-.376-2 .52 1.195.91.924 1.015-1.334.521-1.996-.438-2.624-.282-2.125.526.496.802.032.932-1.541.433-1.635-.519-2.045-.382-1.5.5s.135 1.019-1.5.5-2.045-.382-1.5.5.135 1.019-1.5.5c-1.413-.448-2.02-.341-1.631.288.649 1.05-2.27 2.644-3.179 1.736-.288-.288.077-.524.81-.524s1.091-.242.796-.537c-.779-.779-5.821 1.688-5.27 2.578.641 1.038-2.465 2.115-3.771 1.308-.676-.418-.765-.175-.245.666.599.97.358 1.149-.898.666-.944-.362-1.482-.279-1.195.184.286.464-.619 1.362-2.012 1.996-1.789.815-2.331.829-1.848.047.874-1.414-2.007.121-11.057 5.891-8.9 5.674-25.687 22.461-32.21 32.209C6.71 78.29 0 100.263 0 128c0 22.472 3.661 38.348 13.259 57.492 18.003 35.911 53.052 62.146 92.126 68.96 11.524 2.01 33.706 2.01 45.23 0 32.709-5.704 64.852-26.487 83.342-53.888 10.134-15.018 19.02-37.011 20.688-51.201.347-2.95 1.018-5.363 1.493-5.363.474 0 .855-7.762.847-17.25-.009-9.676-.384-16.669-.854-15.928-.54.851-1.066-.615-1.477-4.112-1.675-14.249-10.541-36.223-20.674-51.239-6.006-8.901-18.634-22.461-26.311-28.252-7.071-5.335-13.229-8.954-12.182-7.16.462.793-.337.203-1.776-1.309-2.575-2.708-4.424-3.712-3.206-1.742.364.59-.427.529-1.91-.147-1.393-.634-2.298-1.532-2.012-1.996s-.251-.546-1.195-.184c-1.256.483-1.497.304-.898-.666.52-.841.431-1.084-.245-.666-1.306.807-4.412-.27-3.771-1.308.551-.89-4.491-3.357-5.27-2.578-.295.295.063.537.796.537s1.098.236.81.524c-.813.813-3.863-.63-3.29-1.557.732-1.184-2.911-2.138-5.043-1.32-1.312.504-1.589.344-1.016-.584.592-.957.225-1.098-1.461-.563-1.573.499-2.037.369-1.541-.433.499-.808-.129-.964-2.125-.526-2.258.494-2.529.389-1.334-.521 1.177-.896.747-1.008-2-.52-2.717.482-3.165.371-2-.5s.717-.982-2-.5c-2.267.402-3.03.296-2.165-.301 1.025-.708.794-1.097-1-1.68C149.2.663 112.586-.129 109.5.603M61.441 19.555c-1.864 1.494-1.852 1.512.309.465 1.237-.6 2.25-1.3 2.25-1.555 0-.765-.519-.544-2.559 1.09m-3.988 2.707c-.266.693-.364 14.531-.217 30.75l.266 29.488.499-30.751c.275-16.912.372-30.75.218-30.75-.155.001-.5.569-.766 1.263m140.546 29.537.499 30.701.266-29.935c.147-16.464-.078-30.279-.499-30.701-.421-.421-.54 13.049-.266 29.935M.411 128c0 9.625.15 13.563.334 8.75.183-4.812.183-12.688 0-17.5-.184-4.812-.334-.875-.334 8.75m126.351-6.293c1.244.239 3.044.23 4-.02s-.062-.446-2.262-.435-2.982.216-1.738.455m-10.012.955c.688.278 1.813.278 2.5 0 .688-.277.125-.504-1.25-.504s-1.937.227-1.25.504m21 0c.688.278 1.813.278 2.5 0 .688-.277.125-.504-1.25-.504s-1.937.227-1.25.504m-25.937 1.021c.721.289 1.584.253 1.916-.079s-.258-.568-1.312-.525c-1.165.048-1.402.285-.604.604m32 0c.721.289 1.584.253 1.916-.079s-.258-.568-1.312-.525c-1.165.048-1.402.285-.604.604m-47.372 5.872c-1.864 1.494-1.852 1.512.309.465 1.237-.6 2.25-1.3 2.25-1.555 0-.765-.519-.544-2.559 1.09m24.372 2.128c.721.289 1.584.253 1.916-.079s-.258-.568-1.312-.525c-1.165.048-1.402.285-.604.604m14 0c.721.289 1.584.253 1.916-.079s-.258-.568-1.312-.525c-1.165.048-1.402.285-.604.604m-48.867 6.067L82.5 141.5l3.75-3.446c2.063-1.896 3.75-3.583 3.75-3.75 0-.764-.846-.044-4.054 3.446M170 137.5c1.866 1.925 3.617 3.5 3.892 3.5s-1.026-1.575-2.892-3.5-3.617-3.5-3.892-3.5 1.026 1.575 2.892 3.5m-71.128 3.25c-1.243 1.586-1.208 1.621.378.378.963-.755 1.75-1.543 1.75-1.75 0-.823-.821-.294-2.128 1.372M174 142.378c0 .207.787.995 1.75 1.75 1.586 1.243 1.621 1.208.378-.378-1.307-1.666-2.128-2.195-2.128-1.372m-83.128 6.372c-1.243 1.586-1.208 1.621.378.378.963-.755 1.75-1.543 1.75-1.75 0-.823-.821-.294-2.128 1.372m30.392-1.032c1.52.229 3.77.223 5-.014s-.014-.425-2.764-.418-3.756.202-2.236.432m43.736-.34c0 .207.787.995 1.75 1.75 1.586 1.243 1.621 1.208.378-.378-1.307-1.666-2.128-2.195-2.128-1.372M143.232 151c0 1.925.206 2.713.457 1.75.252-.963.252-2.537 0-3.5-.251-.963-.457-.175-.457 1.75m14.191 17.5c.001 11.55.147 16.138.324 10.196s.176-15.393-.002-21c-.178-5.608-.323-.746-.322 10.804M138 151.378c0 .207.787.995 1.75 1.75 1.586 1.243 1.621 1.208.378-.378-1.307-1.666-2.128-2.195-2.128-1.372m-33.563 3.872-2.937 3.25 3.25-2.937c3.029-2.738 3.71-3.563 2.937-3.563-.172 0-1.635 1.463-3.25 3.25m-17.483-.164c-.614 1.147-.928 2.274-.697 2.504.23.23.932-.708 1.559-2.086 1.378-3.024.707-3.35-.862-.418m13 6c-.614 1.147-.928 2.274-.697 2.504.23.23.932-.708 1.559-2.086 1.378-3.024.707-3.35-.862-.418m19.553-.097c-.35.566.051.734.941.393 1.732-.665 2.049-1.382.611-1.382-.518 0-1.216.445-1.552.989M138 163.5c1.292 1.375 2.574 2.5 2.849 2.5s-.557-1.125-1.849-2.5-2.574-2.5-2.849-2.5.557 1.125 1.849 2.5m-65.842.5c0 1.375.227 1.938.504 1.25.278-.687.278-1.812 0-2.5-.277-.687-.504-.125-.504 1.25m43.714-.25c-1.243 1.586-1.208 1.621.378.378.963-.755 1.75-1.543 1.75-1.75 0-.823-.821-.294-2.128 1.372m57.207.833c.048 1.165.285 1.402.604.605.289-.722.253-1.585-.079-1.917s-.568.258-.525 1.312m-90 3c.048 1.165.285 1.402.604.605.289-.722.253-1.585-.079-1.917s-.568.258-.525 1.312m58.485.71c.376.986.935 1.541 1.243 1.233s.001-1.114-.683-1.793c-.988-.98-1.102-.865-.56.56m42.764 5.207c.005 3.85.185 5.302.402 3.228.216-2.075.213-5.225-.008-7s-.398-.078-.394 3.772m-87.17-3.5c0 1.375.227 1.938.504 1.25.278-.687.278-1.812 0-2.5-.277-.687-.504-.125-.504 1.25m-25.822 6c0 4.125.177 5.813.392 3.75s.216-5.437 0-7.5c-.215-2.062-.392-.375-.392 3.75m102.964-2c0 3.025.187 4.262.416 2.75s.229-3.988 0-5.5-.416-.275-.416 2.75m-31.142-1c0 1.375.227 1.938.504 1.25.278-.687.278-1.812 0-2.5-.277-.687-.504-.125-.504 1.25m-31.906 3.5c.011 2.2.216 2.982.455 1.738s.23-3.044-.02-4-.446.062-.435 2.262m31.906 3.5c0 1.375.227 1.938.504 1.25.278-.687.278-1.812 0-2.5-.277-.687-.504-.125-.504 1.25m-46 3c0 1.375.227 1.938.504 1.25.278-.687.278-1.812 0-2.5-.277-.687-.504-.125-.504 1.25m-14.079 1.583c.048 1.165.285 1.402.604.605.289-.722.253-1.585-.079-1.917s-.568.258-.525 1.312m90 0c.048 1.165.285 1.402.604.605.289-.722.253-1.585-.079-1.917s-.568.258-.525 1.312m-101 3c.048 1.165.285 1.402.604.605.289-.722.253-1.585-.079-1.917s-.568.258-.525 1.312M116 189.5c1.292 1.375 2.574 2.5 2.849 2.5s-.557-1.125-1.849-2.5-2.574-2.5-2.849-2.5.557 1.125 1.849 2.5m53.405 2.75-1.905 2.25 2.25-1.905c2.114-1.79 2.705-2.595 1.905-2.595-.19 0-1.202 1.012-2.25 2.25M134 192.5c-1.375.786-2.024 1.445-1.441 1.465.582.019 1.932-.626 3-1.433 2.469-1.868 1.68-1.884-1.559-.032m-7.731 2.193c.973.254 2.323.237 3-.037s-.119-.481-1.769-.461-2.204.244-1.231.498m-24.269.685c0 .207.787.995 1.75 1.75 1.586 1.243 1.621 1.208.378-.378-1.307-1.666-2.128-2.195-2.128-1.372m-15 1.563c0 .518.445 1.216.989 1.552.566.35.734-.051.393-.941-.665-1.732-1.382-2.049-1.382-.611m88.437 3.309-2.937 3.25 3.25-2.937c1.787-1.615 3.25-3.078 3.25-3.25 0-.773-.825-.092-3.563 2.937M146 198.659c0 .546 1.238 2.083 2.75 3.417l2.75 2.424-2.5-3c-1.375-1.65-2.613-3.187-2.75-3.417s-.25.03-.25.576m-35.267 4.465c.679.684 1.486.991 1.793.683.308-.308-.247-.867-1.233-1.243-1.425-.542-1.54-.428-.56.56M136 203c-.901.582-1.025.975-.309.985.655.008 1.469-.435 1.809-.985.767-1.242.421-1.242-1.5 0m-18.187 2.683c.721.289 1.584.253 1.916-.079s-.258-.568-1.312-.525c-1.165.048-1.402.285-.604.604m11 0c.721.289 1.584.253 1.916-.079s-.258-.568-1.312-.525c-1.165.048-1.402.285-.604.604M97 209.378c0 .207.787.995 1.75 1.75 1.586 1.243 1.621 1.208.378-.378-1.307-1.666-2.128-2.195-2.128-1.372M86 214.5c1.866 1.925 3.617 3.5 3.892 3.5s-1.026-1.575-2.892-3.5-3.617-3.5-3.892-3.5 1.026 1.575 2.892 3.5m19.441.945c1.068.855 2.38 1.555 2.917 1.555 1.27 0 .703-.462-2.358-1.92-2.357-1.122-2.389-1.102-.559.365m7.372 3.238c.721.289 1.584.253 1.916-.079s-.258-.568-1.312-.525c-1.165.048-1.402.285-.604.604m4 1c.721.289 1.584.253 1.916-.079s-.258-.568-1.312-.525c-1.165.048-1.402.285-.604.604m21 0c.721.289 1.584.253 1.916-.079s-.258-.568-1.312-.525c-1.165.048-1.402.285-.604.604m-13.063 1.04c1.787.222 4.713.222 6.5 0 1.787-.221.325-.403-3.25-.403s-5.037.182-3.25.403M153 225c-.901.582-1.025.975-.309.985.655.008 1.469-.435 1.809-.985.767-1.242.421-1.242-1.5 0m-40.187 3.683c.721.289 1.584.253 1.916-.079s-.258-.568-1.312-.525c-1.165.048-1.402.285-.604.604m29 0c.721.289 1.584.253 1.916-.079s-.258-.568-1.312-.525c-1.165.048-1.402.285-.604.604m-23 1c.721.289 1.584.253 1.916-.079s-.258-.568-1.312-.525c-1.165.048-1.402.285-.604.604m17 0c.721.289 1.584.253 1.916-.079s-.258-.568-1.312-.525c-1.165.048-1.402.285-.604.604"/><path fill="#1976D2" fill-opacity=".259" fill-rule="evenodd" d="M113 .488c-.825.208-3.17.651-5.21.983l-3.711.605-.289 43.712c-.285 42.939-.329 43.785-2.506 47.855-9.183 17.171-32.929 17.416-41.534.428L57 88.641v-33.32C57 36.994 56.645 22 56.212 22s-4.457 2.935-8.94 6.523C2.083 64.678-12.73 128.399 11.628 181.851c14.385 31.564 44.378 57.891 77.991 68.457 24.035 7.554 52.727 7.554 76.762 0 45.114-14.181 80.455-54.405 87.691-99.808.701-4.4 1.647-8.428 2.102-8.95 1.056-1.215 1.092-28.832.036-28.18-.435.269-1.362-3.141-2.06-7.578-3.509-22.3-15.357-46.451-31.653-64.519C217.122 35.313 201.435 22 199.788 22c-.433 0-.788 14.994-.788 33.321v33.32l-2.75 5.43c-8.605 16.988-32.351 16.743-41.534-.428-2.177-4.069-2.221-4.918-2.505-47.787l-.29-43.643-2.21-.692C147.304.767 115.441-.129 113 .488M.397 128c0 7.975.156 11.238.346 7.25s.189-10.513 0-14.5c-.19-3.987-.346-.725-.346 7.25m113.103-5.343c-20.08 4.284-35.892 19.106-41.047 38.474-1.88 7.064-1.841 21.938.077 29.409 5.82 22.664 24.637 37.795 49.779 40.025 11.523 1.023 32.691-2.924 32.691-6.095 0-1.011-2.76-8.468-3.398-9.18-.103-.115-2.869.625-6.145 1.644-13.412 4.174-26.559 3.547-38.013-1.813-8.892-4.162-14.752-9.943-19.2-18.941-3.464-7.009-3.75-8.277-4.083-18.108-.3-8.838-.003-11.625 1.807-16.989 6.254-18.531 21.8-29.083 42.848-29.083 13.557 0 23.979 3.856 32.691 12.095 9.35 8.843 13.642 22.362 11.655 36.706-1.421 10.248-4.762 14.269-10.634 12.795-3.8-.953-4.528-5.252-4.528-26.745V147h-15v3.5c0 3.823-1.001 4.412-3.128 1.842-5.674-6.858-24.069-7.052-32.596-.345-10.779 8.479-14.265 26.33-7.744 39.658 2.77 5.662 6.352 9.179 12.852 12.62 3.169 1.677 5.841 2.179 11.616 2.182 8.224.004 12.177-1.479 17.57-6.59l3.069-2.91 1.368 2.556c4.033 7.537 17.515 9.54 26.571 3.948 3.96-2.444 5.604-4.375 8.41-9.876 3.226-6.323 3.517-7.647 3.857-17.589.591-17.277-4.057-29.288-15.464-39.959-13.843-12.948-34.605-17.92-55.881-13.38m6.49 39.593c-5.761 3.921-7.365 6.986-7.365 14.076 0 10.499 5.429 16.78 14.623 16.919 8.846.134 14.9-5.789 15.516-15.18.686-10.447-5.787-18.065-15.351-18.065-2.624 0-5.316.816-7.423 2.25"/><path fill="#1976D2" fill-opacity=".594" fill-rule="evenodd" d="M113.665.986c-3.759.476-7.458 1.104-8.22 1.397-1.145.439-1.433 8.222-1.665 44.989l-.28 44.458-3.028 4.307c-5.032 7.158-10.36 10.235-18.523 10.696-5.979.338-7.729.02-12.357-2.244-2.966-1.451-6.62-4.248-8.121-6.215C56.418 91.748 56 88.385 56 54.341 56 37.103 55.726 23 55.392 23 53.951 23 41.8 33.479 35.278 40.345c-17.02 17.916-28.04 39.486-32.942 64.473-2.301 11.727-2.298 34.65.005 46.392 10.293 52.471 49.986 92.156 102.477 102.454 11.713 2.298 34.651 2.298 46.364 0 42.728-8.382 77.445-36.242 94.334-75.702 4.494-10.498 8.354-25.127 9.166-34.73.339-4.015 1-7.535 1.468-7.824.467-.29.85-4.126.85-8.526 0-5.079-.365-7.774-1-7.382-.603.372-1-.96-1-3.353 0-2.184-.673-7.498-1.495-11.809-4.646-24.353-15.823-46.139-32.885-64.101C214.18 33.457 202.039 23 200.608 23c-.334 0-.608 14.103-.608 31.341 0 34.044-.418 37.407-5.471 44.033-1.501 1.967-5.155 4.764-8.121 6.215-4.628 2.264-6.378 2.582-12.357 2.244-8.163-.461-13.49-3.538-18.523-10.696l-3.028-4.306-.5-44.625-.5-44.625-3.5-.771C142.326.561 121.058.05 113.665.986M.349 128c0 4.675.173 6.588.383 4.25s.211-6.163 0-8.5c-.21-2.338-.383-.425-.383 4.25m119.406-6.952c-34.098 3.973-55.402 33.64-48.282 67.239 4.334 20.455 20.204 36.384 41.14 41.293 9.49 2.225 27.326 1.499 36.637-1.492 3.713-1.193 6.75-2.319 6.75-2.502 0-.285-2.02-6.277-3.471-10.298-.32-.888-1.984-.638-6.233.938-4.74 1.758-8.074 2.162-18.296 2.212-12.142.06-12.704-.034-19.622-3.277-24.967-11.705-32.153-44.901-14.682-67.827 9.488-12.45 32.647-18.177 50.841-12.573 17.239 5.31 27.194 18.114 28.231 36.312.614 10.756-.98 18.162-4.504 20.934-3.192 2.511-4.748 2.509-7.264-.007-1.876-1.876-2-3.333-2-23.5V147h-17v5.94l-3.618-2.456c-6.868-4.66-14.311-5.585-23.348-2.901-6.992 2.076-14.958 9.811-17.358 16.854-2.119 6.22-2.168 17.762-.101 23.829 2.127 6.242 8.729 13.501 14.887 16.368 9.474 4.412 22.402 2.593 29.088-4.093l2.562-2.562 2.647 3.147C150.147 205.152 154.627 207 161 207c12.16 0 20.786-8.237 23.876-22.799 5.872-27.679-11.575-54.973-39.376-61.597-8.101-1.931-17.603-2.505-25.745-1.556m1.319 41.145c-5.479 2.856-8.075 7.45-8.072 14.291.002 9.182 4.991 15.31 13.218 16.237 10.369 1.169 17.746-8.147 15.747-19.885-1.777-10.432-11.648-15.461-20.893-10.643"/></svg>